<?xml version="1.0" encoding="UTF-8"?>
<svg id="Capa_2" data-name="Capa 2" xmlns="http://www.w3.org/2000/svg" viewBox="0 0 851.64 125.58">
  <defs>
    <style>
      .cls-1 {
        fill: #307181;
        font-family: Roboto-Medium, 'Roboto Medium';
        font-size: 11.83px;
        font-weight: 500;
      }

      .cls-2 {
        fill: #005273;
      }

      .cls-3 {
        fill: #68a9b9;
      }

      .cls-4 {
        fill: #e2c16a;
      }

      .cls-5 {
        fill: #d98a45;
      }

      .cls-6 {
        fill: #0b4977;
      }

      .cls-7 {
        fill: #307180;
      }

      .cls-8 {
        fill: #353331;
      }

      .cls-9 {
        fill: #575756;
      }

      .cls-10 {
        letter-spacing: 0em;
      }
    </style>
  </defs>
  <g id="Capa_1-2" data-name="Capa 1">
    <g>
      <text class="cls-1" transform="translate(106.07 93.98)"><tspan x="0" y="0">Guatemala. Estufas </tspan><tspan class="cls-10" x="106.62" y="0">E</tspan><tspan x="113.21" y="0">ficientes</tspan></text>
      <g>
        <path class="cls-9" d="m110.49,31.35l5.04,12.59,5.04-12.59h2.64v15.43h-2.04v-6.01l.19-6.49-5.07,12.5h-1.56l-5.06-12.46.2,6.46v6.01h-2.04v-15.43h2.63Z"/>
        <path class="cls-9" d="m126.51,32.27c0-.32.1-.59.29-.81s.48-.33.86-.33.67.11.87.33c.2.22.3.49.3.81s-.1.58-.3.79c-.2.21-.49.32-.87.32s-.67-.11-.86-.32-.29-.48-.29-.79Zm2.12,14.51h-1.96v-11.47h1.96v11.47Z"/>
        <path class="cls-9" d="m134.43,32.53v2.78h2.14v1.52h-2.14v7.12c0,.46.09.81.29,1.04.19.23.52.34.97.34.23,0,.54-.04.93-.13v1.58c-.52.14-1.02.21-1.5.21-.88,0-1.54-.26-1.98-.79-.45-.53-.67-1.28-.67-2.26v-7.11h-2.09v-1.52h2.09v-2.78h1.96Z"/>
        <path class="cls-9" d="m138.87,32.27c0-.32.1-.59.29-.81s.48-.33.86-.33.67.11.87.33c.2.22.3.49.3.81s-.1.58-.3.79c-.2.21-.49.32-.87.32s-.67-.11-.86-.32-.29-.48-.29-.79Zm2.12,14.51h-1.96v-11.47h1.96v11.47Z"/>
        <path class="cls-9" d="m143.66,40.95c0-1.79.41-3.21,1.24-4.27.83-1.06,1.92-1.58,3.29-1.58s2.49.5,3.28,1.48l.1-1.27h1.79v11.19c0,1.48-.44,2.65-1.32,3.51-.88.86-2.06,1.28-3.55,1.28-.83,0-1.64-.18-2.43-.53-.79-.35-1.4-.84-1.81-1.45l1.02-1.18c.84,1.04,1.87,1.56,3.08,1.56.95,0,1.7-.27,2.23-.81.53-.54.8-1.29.8-2.27v-.99c-.78.9-1.85,1.36-3.21,1.36s-2.43-.54-3.26-1.62c-.83-1.08-1.25-2.55-1.25-4.42Zm1.97.22c0,1.29.26,2.31.79,3.05.53.74,1.27,1.11,2.23,1.11,1.24,0,2.14-.56,2.72-1.69v-5.24c-.6-1.1-1.5-1.64-2.7-1.64-.95,0-1.7.37-2.24,1.11-.54.74-.81,1.84-.81,3.3Z"/>
        <path class="cls-9" d="m163.39,46.78c-.11-.23-.21-.63-.28-1.21-.91.95-2,1.42-3.26,1.42-1.13,0-2.06-.32-2.78-.96-.72-.64-1.09-1.45-1.09-2.43,0-1.19.45-2.12,1.36-2.78.91-.66,2.18-.99,3.83-.99h1.91v-.9c0-.69-.21-1.23-.62-1.64-.41-.41-1.01-.61-1.81-.61-.7,0-1.29.18-1.76.53-.47.35-.71.78-.71,1.28h-1.97c0-.57.2-1.13.61-1.66s.96-.96,1.65-1.27c.7-.31,1.46-.47,2.29-.47,1.32,0,2.36.33,3.11.99.75.66,1.14,1.57,1.17,2.73v5.28c0,1.05.13,1.89.4,2.51v.17h-2.06Zm-3.25-1.49c.61,0,1.2-.16,1.75-.48.55-.32.95-.73,1.2-1.24v-2.35h-1.54c-2.4,0-3.6.7-3.6,2.11,0,.61.21,1.09.61,1.44.41.35.94.52,1.58.52Z"/>
        <path class="cls-9" d="m170.77,32.53v2.78h2.14v1.52h-2.14v7.12c0,.46.09.81.29,1.04.19.23.52.34.97.34.23,0,.54-.04.93-.13v1.58c-.52.14-1.02.21-1.5.21-.88,0-1.54-.26-1.98-.79-.45-.53-.67-1.28-.67-2.26v-7.11h-2.09v-1.52h2.09v-2.78h1.96Z"/>
        <path class="cls-9" d="m175.21,32.27c0-.32.1-.59.29-.81s.48-.33.86-.33.67.11.87.33c.2.22.3.49.3.81s-.1.58-.3.79c-.2.21-.49.32-.87.32s-.67-.11-.86-.32-.29-.48-.29-.79Zm2.12,14.51h-1.96v-11.47h1.96v11.47Z"/>
        <path class="cls-9" d="m179.95,40.94c0-1.12.22-2.13.66-3.03s1.06-1.59,1.84-2.08c.79-.49,1.69-.73,2.7-.73,1.56,0,2.82.54,3.79,1.62s1.45,2.52,1.45,4.31v.14c0,1.12-.21,2.12-.64,3-.43.89-1.04,1.58-1.83,2.07-.79.5-1.71.74-2.74.74-1.55,0-2.81-.54-3.78-1.62-.96-1.08-1.45-2.51-1.45-4.29v-.14Zm1.97.23c0,1.27.29,2.29.89,3.06.59.77,1.38,1.16,2.37,1.16s1.79-.39,2.38-1.17c.59-.78.88-1.87.88-3.28,0-1.26-.3-2.28-.9-3.06-.6-.78-1.39-1.17-2.38-1.17s-1.75.39-2.34,1.16c-.59.77-.89,1.87-.89,3.31Z"/>
        <path class="cls-9" d="m194.71,35.31l.06,1.44c.88-1.1,2.02-1.65,3.43-1.65,2.42,0,3.65,1.37,3.67,4.1v7.58h-1.96v-7.59c0-.83-.2-1.44-.57-1.83-.37-.4-.95-.59-1.73-.59-.64,0-1.19.17-1.67.51-.48.34-.86.79-1.12,1.34v8.17h-1.96v-11.47h1.86Z"/>
        <path class="cls-9" d="m219.03,42.74h-6.46l-1.45,4.04h-2.1l5.89-15.43h1.78l5.9,15.43h-2.09l-1.47-4.04Zm-5.85-1.66h5.25l-2.63-7.22-2.62,7.22Z"/>
        <path class="cls-9" d="m228.96,45.39c.7,0,1.31-.21,1.83-.64.52-.42.81-.95.87-1.59h1.85c-.04.66-.26,1.28-.68,1.88s-.97,1.07-1.67,1.42c-.7.35-1.43.53-2.21.53-1.56,0-2.8-.52-3.73-1.56-.92-1.04-1.38-2.47-1.38-4.28v-.33c0-1.12.2-2.11.61-2.98s1-1.54,1.76-2.02,1.67-.72,2.72-.72c1.29,0,2.35.39,3.21,1.16.85.77,1.31,1.77,1.36,3h-1.85c-.06-.74-.34-1.35-.84-1.83-.51-.48-1.13-.72-1.87-.72-1,0-1.77.36-2.32,1.08-.55.72-.82,1.75-.82,3.11v.37c0,1.32.27,2.34.82,3.05s1.32,1.07,2.33,1.07Z"/>
        <path class="cls-9" d="m238.39,32.53v2.78h2.14v1.52h-2.14v7.12c0,.46.09.81.29,1.04.19.23.52.34.97.34.23,0,.54-.04.93-.13v1.58c-.52.14-1.02.21-1.5.21-.88,0-1.54-.26-1.98-.79-.45-.53-.67-1.28-.67-2.26v-7.11h-2.09v-1.52h2.09v-2.78h1.96Z"/>
        <path class="cls-9" d="m242.83,32.27c0-.32.1-.59.29-.81s.48-.33.86-.33.67.11.87.33c.2.22.3.49.3.81s-.1.58-.3.79c-.2.21-.49.32-.87.32s-.67-.11-.86-.32-.29-.48-.29-.79Zm2.12,14.51h-1.96v-11.47h1.96v11.47Z"/>
        <path class="cls-9" d="m247.56,40.94c0-1.12.22-2.13.66-3.03s1.06-1.59,1.84-2.08c.79-.49,1.69-.73,2.7-.73,1.56,0,2.82.54,3.79,1.62s1.45,2.52,1.45,4.31v.14c0,1.12-.21,2.12-.64,3-.43.89-1.04,1.58-1.83,2.07-.79.5-1.71.74-2.74.74-1.55,0-2.81-.54-3.78-1.62-.96-1.08-1.45-2.51-1.45-4.29v-.14Zm1.97.23c0,1.27.29,2.29.89,3.06.59.77,1.38,1.16,2.37,1.16s1.79-.39,2.38-1.17c.59-.78.88-1.87.88-3.28,0-1.26-.3-2.28-.9-3.06-.6-.78-1.39-1.17-2.38-1.17s-1.75.39-2.34,1.16c-.59.77-.89,1.87-.89,3.31Z"/>
        <path class="cls-9" d="m262.32,35.31l.06,1.44c.88-1.1,2.02-1.65,3.43-1.65,2.42,0,3.65,1.37,3.67,4.1v7.58h-1.96v-7.59c0-.83-.2-1.44-.57-1.83-.37-.4-.95-.59-1.73-.59-.64,0-1.19.17-1.67.51-.48.34-.86.79-1.12,1.34v8.17h-1.96v-11.47h1.86Z"/>
        <path class="cls-9" d="m116.37,66.01h-6.48v6.82h-2.04v-15.43h9.56v1.66h-7.53v5.29h6.48v1.66Z"/>
        <path class="cls-9" d="m126.27,72.83c-.11-.23-.21-.63-.28-1.21-.91.95-2,1.42-3.26,1.42-1.13,0-2.06-.32-2.78-.96-.72-.64-1.09-1.45-1.09-2.43,0-1.19.45-2.12,1.36-2.78.91-.66,2.18-.99,3.83-.99h1.91v-.9c0-.69-.21-1.23-.62-1.64-.41-.41-1.01-.61-1.81-.61-.7,0-1.29.18-1.76.53-.47.35-.71.78-.71,1.28h-1.97c0-.57.2-1.13.61-1.66s.96-.96,1.65-1.27c.7-.31,1.46-.47,2.29-.47,1.32,0,2.36.33,3.11.99.75.66,1.14,1.57,1.17,2.73v5.28c0,1.05.13,1.89.4,2.51v.17h-2.06Zm-3.25-1.49c.61,0,1.2-.16,1.75-.48.55-.32.95-.73,1.2-1.24v-2.35h-1.54c-2.4,0-3.6.7-3.6,2.11,0,.61.21,1.09.61,1.44.41.35.94.52,1.58.52Z"/>
        <path class="cls-9" d="m135.6,71.44c.7,0,1.31-.21,1.83-.64.52-.42.81-.95.87-1.59h1.85c-.04.66-.26,1.28-.68,1.88s-.97,1.07-1.67,1.42c-.7.35-1.43.53-2.21.53-1.56,0-2.8-.52-3.73-1.56-.92-1.04-1.38-2.47-1.38-4.28v-.33c0-1.12.2-2.11.61-2.98s1-1.54,1.76-2.02,1.67-.72,2.72-.72c1.29,0,2.35.39,3.21,1.16.85.77,1.31,1.77,1.36,3h-1.85c-.06-.74-.34-1.35-.84-1.83-.51-.48-1.13-.72-1.87-.72-1,0-1.77.36-2.32,1.08-.55.72-.82,1.75-.82,3.11v.37c0,1.32.27,2.34.82,3.05s1.32,1.07,2.33,1.07Z"/>
        <path class="cls-9" d="m142.37,58.32c0-.32.1-.59.29-.81s.48-.33.86-.33.67.11.87.33c.2.22.3.49.3.81s-.1.58-.3.79c-.2.21-.49.32-.87.32s-.67-.11-.86-.32-.29-.48-.29-.79Zm2.12,14.51h-1.96v-11.47h1.96v11.47Z"/>
        <path class="cls-9" d="m149.76,72.83h-1.96v-16.28h1.96v16.28Z"/>
        <path class="cls-9" d="m152.9,58.32c0-.32.1-.59.29-.81s.48-.33.86-.33.67.11.87.33c.2.22.3.49.3.81s-.1.58-.3.79c-.2.21-.49.32-.87.32s-.67-.11-.86-.32-.29-.48-.29-.79Zm2.12,14.51h-1.96v-11.47h1.96v11.47Z"/>
        <path class="cls-9" d="m160.82,58.58v2.78h2.14v1.52h-2.14v7.12c0,.46.09.81.29,1.04.19.23.52.34.97.34.23,0,.54-.04.93-.13v1.58c-.52.14-1.02.21-1.5.21-.88,0-1.54-.26-1.98-.79-.45-.53-.67-1.28-.67-2.26v-7.11h-2.09v-1.52h2.09v-2.78h1.96Z"/>
        <path class="cls-9" d="m169,69.96l2.67-8.6h2.1l-4.61,13.24c-.71,1.91-1.85,2.86-3.4,2.86l-.37-.03-.73-.14v-1.59l.53.04c.66,0,1.18-.13,1.55-.4.37-.27.68-.76.92-1.47l.43-1.17-4.09-11.34h2.14l2.86,8.6Z"/>
      </g>
      <g>
        <path class="cls-5" d="m70.45,51.28c-5.69,5.31-13.12,7.59-20.31,6.9.95,2.79,2.48,5.44,4.63,7.73,8.08,8.66,21.66,9.13,30.32,1.05,8.66-8.08,9.13-21.66,1.05-30.32-2.14-2.3-4.67-4.01-7.4-5.15.19,7.21-2.59,14.47-8.28,19.78Z"/>
        <path class="cls-7" d="m40.23,26.56c6.82,6.82,9.95,15.92,9.41,24.84,3.42-1.29,6.62-3.31,9.37-6.06,10.37-10.37,10.37-27.19,0-37.57s-27.19-10.37-37.57,0c-2.75,2.75-4.76,5.96-6.06,9.37,8.92-.54,18.02,2.59,24.84,9.41Z"/>
        <path class="cls-3" d="m21.45,54.63c5.5-5.5,12.85-8.03,20.06-7.6-1.04-2.76-2.67-5.35-4.89-7.57-8.38-8.38-21.96-8.38-30.33,0-8.38,8.38-8.38,21.96,0,30.33,2.22,2.22,4.81,3.85,7.57,4.89-.44-7.2,2.09-14.55,7.6-20.06Z"/>
        <path class="cls-4" d="m46.59,74.81c-4.75-6.17-6.31-13.78-4.96-20.87-2.87.68-5.65,1.96-8.14,3.88-9.38,7.23-11.13,20.7-3.9,30.08,7.23,9.38,20.7,11.13,30.08,3.9,2.49-1.92,4.43-4.28,5.82-6.88-7.2-.49-14.16-3.95-18.91-10.11Z"/>
      </g>
      <g id="Anclaje---Llamada---01">
        <g>
          <path class="cls-8" d="m780.27,48.38c3.51-2.38,5.22-5.62,5.22-9.86v-.13c0-3.36-1.11-6.1-3.39-8.38-2.82-2.82-7.18-4.31-12.61-4.31h-22.22v47.74h22.75c11.47,0,18.05-4.89,18.05-13.42v-.13c0-5.49-2.42-9.08-7.8-11.5m-10.25,14.67h-11.37v-8.73h11.04c4.52,0,6.81,1.44,6.81,4.3v.13c0,2.85-2.18,4.3-6.48,4.3m-11.37-18.64v-8.33h9.32c2.72,0,5.95.7,5.95,4.03v.13c0,2.76-2.23,4.17-6.61,4.17h-8.66Z"/>
          <path class="cls-8" d="m826.31,25.69h-18.78v47.74s18.78,0,18.78,0c7.14,0,13.63-2.45,18.26-6.89,4.56-4.37,7.07-10.41,7.07-16.98v-.13c0-13.75-10.65-23.74-25.32-23.74m13.22,23.87v.13c0,7.83-5.32,13.1-13.22,13.1h-7.14v-26.45h7.14c7.91,0,13.22,5.31,13.22,13.22"/>
          <path class="cls-8" d="m797.1,25.62c3.21,0,5.82,2.6,5.82,5.82v42.01h-11.64V25.61h5.82Z"/>
          <path class="cls-2" d="m698.7,56.77c-6.14,9.94,13.58,10.09,4.46,28.66-.27.04-.53.1-.81.14-21.27,3.11-41.03-11.6-44.14-32.87-1.47-10.08,1.06-19.83,6.4-27.62-.99,22.44,39.82,22.42,34.09,31.69m8.7,27.7c2.1-3.91,6.68-9.61,16.46-21.1,14.63-17.19-28.72-11.42-36.15-24.42-6.12-10.72,16.65-18.42,30.41-24.38,8.94,5.89,15.43,15.43,17.1,26.86,2.86,19.53-9.33,37.79-27.82,43.05m-12.84-49.08c-1.46.77,1.15,4.16,7.83,4.34,6.68.18-1.93-7.44-7.83-4.34m14.75,3.63c-5.01-1.62-1.71,2.39.67,2.65,2.38.26,2.88-1.5-.67-2.65m5.23,3.92c-1.67-.07-1.96.94.54,1.46,3.53.75,1.13-1.4-.54-1.46"/>
        </g>
        <g>
          <rect class="cls-6" x="393.17" y="26.22" width="9.09" height="45.78" transform="translate(-.06 .52) rotate(-.08)"/>
          <path class="cls-6" d="m416.6,26.68h-9.08s.01,8.73.01,8.73h-3.57s0,7.27,0,7.27h3.57s.02,20.38.02,20.38c0,1.62.28,2.99.82,4.12.55,1.13,1.3,2.05,2.27,2.75.97.71,2.1,1.22,3.39,1.54,1.29.32,2.71.48,4.24.48,1.05,0,2.12-.06,3.21-.19,1.09-.12,2.14-.37,3.15-.73v-7.57c-.41.36-1.01.6-1.8.7s-1.42.15-1.91.15c-.97,0-1.75-.13-2.33-.39-.59-.26-1.02-.63-1.3-1.12-.28-.48-.47-1.06-.55-1.73-.08-.67-.12-1.4-.12-2.21l-.02-16.21h7.99s0-7.28,0-7.28h-7.99s-.01-8.71-.01-8.71Z"/>
          <path class="cls-6" d="m437.04,49.26c.05-.91.26-1.78.64-2.61.38-.83.9-1.56,1.58-2.19.68-.63,1.5-1.15,2.45-1.55.96-.4,2.06-.61,3.32-.61,2.06,0,3.75.68,5.07,2.03,1.31,1.36,1.94,3,1.89,4.91l-14.96.02Zm21.64-9.89c-1.49-1.68-3.3-2.98-5.45-3.88-2.14-.9-4.52-1.35-7.14-1.35-2.82,0-5.48.46-7.97,1.37-2.49.91-4.66,2.21-6.49,3.9-1.84,1.69-3.28,3.72-4.34,6.09-1.06,2.37-1.58,5.01-1.58,7.94,0,2.92.54,5.57,1.6,7.93,1.06,2.37,2.51,4.39,4.35,6.08,1.84,1.69,4.01,2.98,6.5,3.88,2.49.9,5.15,1.35,7.97,1.35,2.97,0,5.84-.64,8.61-1.9,2.77-1.26,5.06-3.05,6.87-5.37l-7.94-5.81c-.96,1.31-2.07,2.38-3.36,3.22-1.28.83-2.86,1.25-4.72,1.25-2.22,0-4.08-.64-5.59-1.92-1.51-1.28-2.5-3.01-2.95-5.17l26.3-.03v-3.55c0-2.92-.42-5.56-1.22-7.93-.81-2.37-1.96-4.39-3.45-6.08"/>
          <path class="cls-6" d="m488.59,33.8c-2.52,0-4.61.57-6.27,1.71-1.66,1.14-3.09,2.84-4.3,5.11h-.15v-5.89s-11.34.01-11.34.01l.05,36.72h11.33s-.02-15.35-.02-15.35c0-1.81.1-3.48.3-4.99.2-1.51.64-2.81,1.32-3.89.68-1.08,1.65-1.93,2.91-2.53,1.26-.61,2.97-.91,5.14-.91.86,0,1.67.06,2.46.19.78.13,1.57.31,2.38.56v-10.35c-.57-.15-1.17-.25-1.83-.3-.66-.05-1.31-.07-1.96-.07"/>
          <path class="cls-6" d="m528.24,38.7c-.99-1.56-2.37-2.79-4.14-3.67-1.77-.88-4.1-1.32-6.98-1.32-1.37,0-2.63.18-3.79.54-1.16.36-2.2.81-3.11,1.37-.91.56-1.69,1.19-2.35,1.9-.66.71-1.16,1.42-1.51,2.12h-.15v-5s-10.92.01-10.92.01l.05,36.84h11.37s-.02-18.36-.02-18.36c0-1.21.07-2.38.22-3.49.15-1.11.46-2.11.94-3,.48-.88,1.17-1.59,2.08-2.12.91-.53,2.1-.8,3.56-.8,1.46,0,2.59.3,3.37.91.78.6,1.37,1.39,1.75,2.35.38.96.61,2.01.69,3.15.08,1.14.12,2.24.12,3.3l.02,18.04h11.37s-.03-20.33-.03-20.33c0-2.48-.18-4.78-.54-6.9-.36-2.12-1.03-3.97-2.02-5.53"/>
          <path class="cls-6" d="m543.6,47.62l14.77,14.73-14.75.02-.02-14.75Zm-8.96-21.57l.06,45.27,45.27-.06-45.32-45.21Z"/>
          <path class="cls-6" d="m369.7,63.08c-5.47,0-9.92-4.44-9.93-9.91,0-5.47,4.44-9.92,9.91-9.93,5.47,0,9.92,4.44,9.93,9.91,0,5.47-4.44,9.92-9.91,9.93m-.04-28.8c-10.41.01-18.87,8.49-18.85,18.9.01,10.41,8.49,18.87,18.9,18.85.38,0,.75-.02,1.13-.04l17.74-.02-.02-18.39c0-.15.01-.3.01-.45-.01-10.41-8.49-18.87-18.9-18.85"/>
        </g>
      </g>
    </g>
  </g>
</svg>